<svg class="icon" viewBox="0 0 1077 1024" xmlns="http://www.w3.org/2000/svg" width="128" height="128"><path d="M1022.81 481.426H53.93a56.626 56.626 0 00-10.55 1.077l-4.522 1.507a27.775 27.775 0 00-5.598 1.723 35.956 35.956 0 00-4.952 2.583 26.698 26.698 0 00-4.306 2.153 54.903 54.903 0 00-14.857 15.072l-2.368 4.09a38.54 38.54 0 00-2.584 5.168c0 1.722 0 3.66-1.722 5.383a35.741 35.741 0 00-1.292 4.521 49.736 49.736 0 000 21.53 38.755 38.755 0 001.292 4.738c0 1.722 1.076 3.66 1.722 5.382s1.723 3.445 2.584 5.168l2.368 4.09a41.124 41.124 0 006.675 8.182l434.705 434.274a53.827 53.827 0 0076.218-76.003L183.76 589.08h839.698a53.827 53.827 0 000-107.654z" fill="#111"/><path d="M123.583 346.56600000000003L454.412 15.737q38.061-38.06 76.122 0 38.061 38.062 0 76.123L199.706 422.688q-38.061 38.062-76.123 0-38.061-38.06 0-76.122z" fill="#00C569"/></svg>