<svg class="icon" viewBox="0 0 1024 1024" xmlns="http://www.w3.org/2000/svg" width="200" height="200"><path d="M512 164.386c-191.883 0-347.614 155.73-347.614 347.614S320.116 859.614 512 859.614 859.614 703.884 859.614 512 703.884 164.386 512 164.386zm148.431 456.417c10.776 10.776 10.776 28.505 0 39.28-5.562 5.563-12.514 7.996-19.814 7.996s-14.252-2.781-19.814-7.995L512 551.28 403.197 660.084c-5.562 5.562-12.514 7.995-19.814 7.995s-14.252-2.781-19.814-7.995c-10.776-10.776-10.776-28.505 0-39.28L472.719 512 363.57 403.197c-10.776-10.776-10.776-28.505 0-39.28s28.504-10.777 39.28 0L512 472.72l108.803-108.804c10.776-10.776 28.505-10.776 39.28 0s10.777 28.505 0 39.28L551.28 512l109.151 108.803z" fill="#d81e06"/></svg>